<svg width="1760" height="1736" viewBox="0 0 1760 1736" fill="none" xmlns="http://www.w3.org/2000/svg">
<rect width="430" height="932" rx="30" transform="matrix(0.845728 -0.533615 0.677261 0.735743 384 682.454)" fill="#636060"/>
<rect width="430" height="932" rx="30" transform="matrix(0.845728 -0.533615 0.677261 0.735743 384 639)" fill="#D9D9D9"/>
<g filter="url(#filter0_f_636_2646)">
<ellipse cx="249" cy="466" rx="249" ry="466" transform="matrix(0.845728 -0.533615 0.677261 0.735743 353.554 658.21)" fill="#D9D9D9"/>
</g>
<g clip-path="url(#clip0_636_2646)">
<rect width="402" height="46" rx="23" transform="matrix(0.845728 -0.533615 0.677261 0.735743 404.645 641.094)" fill="#D9D9D9"/>
<path fill-rule="evenodd" clip-rule="evenodd" d="M698.126 479.182L698.972 478.649C699.439 478.354 700.121 478.444 700.495 478.851L704.558 483.265C704.932 483.672 704.857 484.24 704.39 484.535L703.544 485.068C703.077 485.363 702.395 485.272 702.021 484.866L697.958 480.452C697.583 480.045 697.659 479.477 698.126 479.182Z" fill="#F9F9F9"/>
<path fill-rule="evenodd" clip-rule="evenodd" d="M695.675 483.055L696.521 482.522C696.988 482.227 697.67 482.317 698.044 482.724L700.753 485.667C701.127 486.073 701.051 486.641 700.584 486.936L699.738 487.47C699.271 487.764 698.589 487.674 698.215 487.268L695.506 484.325C695.132 483.918 695.208 483.35 695.675 483.055Z" fill="#F9F9F9"/>
<path fill-rule="evenodd" clip-rule="evenodd" d="M692.885 486.56L693.731 486.027C694.198 485.732 694.879 485.822 695.254 486.229L696.947 488.068C697.321 488.474 697.245 489.043 696.778 489.337L695.932 489.871C695.465 490.166 694.784 490.075 694.409 489.669L692.716 487.829C692.342 487.423 692.418 486.855 692.885 486.56Z" fill="#F9F9F9"/>
<path fill-rule="evenodd" clip-rule="evenodd" d="M700.577 475.309L701.423 474.776C701.89 474.481 702.572 474.571 702.946 474.978L708.364 480.864C708.738 481.27 708.663 481.838 708.196 482.133L707.35 482.667C706.883 482.961 706.201 482.871 705.827 482.464L700.409 476.579C700.035 476.172 700.11 475.604 700.577 475.309Z" fill="#3C3C43" fill-opacity="0.18"/>
<path fill-rule="evenodd" clip-rule="evenodd" d="M698.126 479.182L698.972 478.649C699.439 478.354 700.121 478.444 700.495 478.851L704.558 483.265C704.932 483.672 704.857 484.24 704.39 484.535L703.544 485.068C703.077 485.363 702.395 485.272 702.021 484.866L697.958 480.452C697.583 480.045 697.659 479.477 698.126 479.182Z" fill="black"/>
<path fill-rule="evenodd" clip-rule="evenodd" d="M695.675 483.055L696.521 482.522C696.988 482.227 697.67 482.317 698.044 482.724L700.753 485.667C701.127 486.073 701.051 486.641 700.584 486.936L699.738 487.47C699.271 487.764 698.589 487.674 698.215 487.268L695.506 484.325C695.132 483.918 695.208 483.35 695.675 483.055Z" fill="black"/>
<path fill-rule="evenodd" clip-rule="evenodd" d="M692.885 486.56L693.731 486.027C694.198 485.732 694.879 485.822 695.254 486.229L696.947 488.068C697.321 488.474 697.245 489.043 696.778 489.337L695.932 489.871C695.465 490.166 694.784 490.075 694.409 489.669L692.716 487.829C692.342 487.423 692.418 486.855 692.885 486.56Z" fill="black"/>
<path d="M718.498 472.073C719.039 471.732 719.678 471.524 720.358 471.468L720.634 471.445C720.843 471.427 721.024 471.581 721 471.756L720.678 474.156C720.658 474.304 720.498 474.404 720.321 474.381L717.459 474.004C717.25 473.977 717.119 473.793 717.193 473.631L717.29 473.418C717.535 472.882 717.95 472.419 718.498 472.073Z" fill="black"/>
<path d="M716.148 469.521C717.493 468.672 719.143 468.245 720.857 468.3L721.099 468.308C721.292 468.314 721.443 468.46 721.422 468.62L721.229 470.053C721.211 470.186 721.079 470.283 720.919 470.281L720.733 470.28C719.6 470.269 718.516 470.563 717.625 471.125C716.728 471.691 716.096 472.484 715.81 473.399L715.764 473.549C715.724 473.677 715.575 473.757 715.416 473.736L713.696 473.51C713.505 473.485 713.375 473.326 713.418 473.171L713.472 472.976C713.859 471.585 714.796 470.374 716.148 469.521Z" fill="black"/>
<path d="M713.798 466.967C715.933 465.62 718.578 464.987 721.3 465.168L721.532 465.184C721.72 465.196 721.862 465.34 721.842 465.495L721.65 466.924C721.631 467.062 721.489 467.161 721.321 467.151L721.124 467.14C719 467.017 716.941 467.52 715.275 468.571C713.602 469.627 712.469 471.143 712.052 472.879L712.013 473.04C711.98 473.176 711.827 473.264 711.661 473.242L709.947 473.016C709.76 472.992 709.631 472.84 709.666 472.687L709.709 472.498C710.216 470.27 711.656 468.319 713.798 466.967Z" fill="black"/>
<path d="M746.164 450.035V450.035C746.631 449.74 747.313 449.831 747.687 450.237L749.041 451.709C749.415 452.115 749.34 452.683 748.873 452.978V452.978L746.164 450.035Z" fill="#3C3C43" fill-opacity="0.6"/>
<path fill-rule="evenodd" clip-rule="evenodd" d="M725.694 458.298L740.072 449.226C741.473 448.342 743.519 448.614 744.641 449.833L748.704 454.247C749.826 455.466 749.6 457.171 748.199 458.055L733.822 467.127C732.42 468.011 730.375 467.739 729.253 466.52L725.189 462.106C724.067 460.887 724.293 459.182 725.694 458.298ZM726.372 459.033C725.438 459.623 725.287 460.759 726.035 461.572L730.098 465.987C730.846 466.799 732.21 466.98 733.144 466.391L747.522 457.319C748.456 456.73 748.607 455.593 747.859 454.781L743.795 450.366C743.047 449.553 741.683 449.372 740.749 449.962L726.372 459.033Z" fill="#3C3C43" fill-opacity="0.6"/>
<rect width="19" height="8" rx="1" transform="matrix(0.845728 -0.533615 0.677261 0.735743 726.203 460.303)" fill="black"/>
<g clip-path="url(#clip1_636_2646)">
<path d="M455.693 641.554C457.967 640.12 457.893 637.721 455.483 635.102C454.575 634.116 453.594 633.423 452.589 633.043C451.07 632.426 449.54 632.539 448.233 633.364C446.288 634.591 445.959 636.596 447.428 638.191C448.807 639.689 451.047 639.996 452.751 638.921C453.798 638.261 454.254 637.3 453.996 636.296L454.015 636.284C454.015 636.284 454.039 636.268 454.046 636.264C454.058 636.256 454.101 636.229 454.101 636.229C455.738 638.007 455.941 639.558 454.634 640.382C453.866 640.867 452.934 640.876 452.189 640.417L450.597 641.422C452.039 642.531 454.058 642.586 455.693 641.554ZM452.118 637.574C451.09 638.223 449.773 638.048 448.955 637.159C448.156 636.292 448.314 635.144 449.312 634.515C450.309 633.886 451.697 634.075 452.506 634.953C453.304 635.821 453.14 636.929 452.118 637.574Z" fill="black"/>
<path d="M461.862 637.543C462.45 637.171 462.515 636.551 462.069 636.066C461.618 635.576 460.883 635.469 460.294 635.84C459.712 636.207 459.635 636.826 460.087 637.317C460.533 637.802 461.279 637.91 461.862 637.543ZM458.141 633.501C458.73 633.13 458.8 632.515 458.354 632.03C457.902 631.539 457.167 631.432 456.579 631.804C455.997 632.171 455.92 632.79 456.372 633.28C456.818 633.765 457.559 633.869 458.141 633.501Z" fill="black"/>
<path d="M468.547 633.146L470.077 632.181L468.742 630.731L469.95 629.969L468.869 628.794L467.661 629.556L462.919 624.405L460.664 625.827C460.989 628.893 461.324 631.416 461.705 633.212L462.845 634.452L467.212 631.696L468.547 633.146ZM463.2 632.294C462.772 630.043 462.526 628.179 462.369 626.541L462.455 626.486L466.186 630.538L463.274 632.375L463.2 632.294Z" fill="black"/>
<path d="M474.692 629.269L476.29 628.26L469.132 620.484L467.54 621.489L466.514 624.385L467.745 625.721L468.718 622.96L468.824 622.894L474.692 629.269Z" fill="black"/>
</g>
</g>
<g clip-path="url(#clip2_636_2646)">
<rect width="375" height="32" rx="16" transform="matrix(0.845728 -0.533615 0.677261 0.735743 1005.53 1274.99)" fill="#D9D9D9"/>
<rect width="134" height="5" rx="2.5" transform="matrix(0.845728 -0.533615 0.677261 0.735743 1122.09 1225.87)" fill="black"/>
</g>
<path d="M570.235 773.167L568.003 770.742L581.137 762.455L583.369 764.88L578.473 767.969L589.047 779.456L585.705 781.565L575.131 770.078L570.235 773.167ZM593.177 754.857L596.559 752.724L604.875 761.759C605.809 762.773 606.348 763.837 606.491 764.949C606.64 766.058 606.413 767.139 605.81 768.192C605.204 769.241 604.239 770.182 602.917 771.016C601.589 771.854 600.235 772.376 598.853 772.582C597.467 772.784 596.147 772.678 594.895 772.265C593.643 771.853 592.55 771.139 591.616 770.125L583.3 761.09L586.681 758.957L594.766 767.74C595.254 768.27 595.82 768.657 596.465 768.902C597.115 769.143 597.793 769.227 598.499 769.154C599.205 769.081 599.884 768.839 600.534 768.428C601.19 768.014 601.652 767.537 601.919 766.996C602.192 766.452 602.271 765.89 602.157 765.31C602.049 764.727 601.751 764.171 601.263 763.641L593.177 754.857ZM611.699 749.496C611.132 748.988 610.472 748.731 609.719 748.727C608.966 748.722 608.183 748.976 607.371 749.489C606.819 749.837 606.416 750.199 606.161 750.574C605.902 750.945 605.779 751.313 605.793 751.676C605.812 752.037 605.959 752.366 606.234 752.665C606.453 752.921 606.713 753.1 607.014 753.204C607.32 753.304 607.653 753.348 608.012 753.336C608.368 753.32 608.745 753.265 609.143 753.17C609.538 753.072 609.941 752.946 610.352 752.794L612.064 752.187C612.887 751.882 613.694 751.659 614.486 751.518C615.277 751.377 616.038 751.336 616.77 751.398C617.501 751.459 618.19 751.64 618.837 751.94C619.489 752.238 620.084 752.675 620.623 753.251C621.402 754.106 621.831 755.001 621.912 755.938C621.994 756.868 621.73 757.797 621.12 758.725C620.511 759.646 619.556 760.518 618.255 761.339C616.964 762.153 615.681 762.691 614.406 762.951C613.137 763.208 611.923 763.168 610.766 762.831C609.61 762.487 608.558 761.823 607.611 760.838L610.882 758.774C611.348 759.218 611.86 759.51 612.419 759.652C612.978 759.786 613.56 759.787 614.164 759.657C614.769 759.518 615.363 759.265 615.946 758.897C616.519 758.536 616.949 758.15 617.237 757.739C617.531 757.325 617.676 756.915 617.672 756.509C617.669 756.103 617.513 755.732 617.205 755.397C616.917 755.085 616.568 754.889 616.159 754.811C615.755 754.73 615.281 754.742 614.737 754.849C614.199 754.953 613.582 755.127 612.886 755.373L610.795 756.091C609.184 756.656 607.709 756.882 606.369 756.768C605.03 756.654 603.89 756.081 602.949 755.05C602.168 754.211 601.748 753.312 601.689 752.354C601.636 751.393 601.904 750.447 602.495 749.515C603.086 748.584 603.965 747.75 605.131 747.015C606.318 746.266 607.516 745.789 608.727 745.584C609.942 745.375 611.087 745.43 612.161 745.747C613.235 746.065 614.161 746.633 614.939 747.452L611.699 749.496ZM631.645 752.579L618.838 738.667L625.148 734.686C626.361 733.92 627.579 733.47 628.804 733.334C630.025 733.194 631.186 733.338 632.288 733.767C633.392 734.188 634.368 734.86 635.219 735.784C636.069 736.708 636.591 737.667 636.783 738.663C636.975 739.658 636.818 740.627 636.311 741.57C635.81 742.509 634.945 743.366 633.716 744.142L629.695 746.679L627.525 744.322L631 742.129C631.65 741.719 632.097 741.283 632.339 740.822C632.583 740.354 632.648 739.879 632.535 739.399C632.424 738.911 632.157 738.439 631.736 737.981C631.311 737.519 630.833 737.184 630.303 736.974C629.774 736.757 629.208 736.688 628.606 736.767C628 736.841 627.369 737.086 626.713 737.499L624.433 738.938L635.026 750.446L631.645 752.579ZM646.791 743.022L643.168 745.308L635.883 727.913L640.24 725.163L658.559 735.597L654.936 737.883L641.05 729.678L640.925 729.757L646.791 743.022ZM641.531 737.696L650.089 732.297L652.203 734.593L643.645 739.993L641.531 737.696ZM660.484 734.383L647.677 720.471L651.058 718.337L661.633 729.824L668.488 725.499L670.721 727.924L660.484 734.383ZM676.124 724.514L672.501 726.8L665.215 709.405L669.573 706.656L687.892 717.09L684.269 719.376L670.383 711.17L670.258 711.249L676.124 724.514ZM670.864 719.189L679.422 713.789L681.536 716.085L672.978 721.485L670.864 719.189ZM689.817 715.875L677.01 701.963L683.413 697.923C684.59 697.181 685.711 696.713 686.776 696.521C687.841 696.328 688.82 696.376 689.712 696.666C690.599 696.951 691.364 697.442 692.006 698.139C692.506 698.682 692.821 699.239 692.951 699.809C693.076 700.374 693.041 700.926 692.845 701.465C692.651 701.995 692.325 702.491 691.868 702.951L691.993 703.087C692.623 702.725 693.331 702.515 694.116 702.456C694.907 702.394 695.698 702.507 696.489 702.795C697.277 703.078 697.985 703.562 698.615 704.246C699.294 704.984 699.69 705.776 699.802 706.622C699.915 707.46 699.717 708.304 699.208 709.155C698.7 710.006 697.846 710.809 696.649 711.564L689.817 715.875ZM690.984 711.337L693.741 709.598C694.683 709.003 695.226 708.414 695.371 707.828C695.511 707.239 695.339 706.681 694.856 706.156C694.501 705.771 694.082 705.499 693.597 705.339C693.113 705.179 692.596 705.141 692.046 705.223C691.501 705.301 690.958 705.512 690.417 705.853L687.582 707.642L690.984 711.337ZM685.75 705.651L688.257 704.07C688.72 703.777 689.067 703.448 689.297 703.081C689.528 702.706 689.626 702.321 689.593 701.927C689.565 701.53 689.382 701.148 689.044 700.781C688.581 700.278 688.002 700.003 687.308 699.954C686.618 699.903 685.899 700.113 685.149 700.586L682.58 702.207L685.75 705.651ZM704.354 706.703L691.548 692.79L697.857 688.809C699.065 688.047 700.269 687.585 701.468 687.422C702.669 687.252 703.808 687.367 704.885 687.768C705.964 688.162 706.926 688.818 707.772 689.738C708.622 690.662 709.125 691.601 709.28 692.556C709.43 693.506 709.233 694.432 708.689 695.334C708.15 696.232 707.266 697.069 706.038 697.844L701.813 700.51L699.637 698.146L703.315 695.825C703.961 695.418 704.426 695.002 704.711 694.579C704.996 694.156 705.101 693.724 705.026 693.285C704.956 692.843 704.71 692.393 704.289 691.935C703.864 691.473 703.399 691.151 702.894 690.969C702.394 690.783 701.853 690.745 701.27 690.855C700.689 690.956 700.073 691.213 699.423 691.623L697.143 693.062L707.735 704.569L704.354 706.703ZM707.163 694.922L716.965 698.746L713.233 701.101L703.516 697.223L707.163 694.922ZM721.541 695.859L717.918 698.145L710.632 680.749L714.989 678L733.308 688.434L729.685 690.72L715.8 682.514L715.675 682.593L721.541 695.859ZM716.281 690.533L724.839 685.133L726.952 687.429L718.394 692.829L716.281 690.533ZM734.42 672.065C733.853 671.556 733.193 671.3 732.44 671.295C731.687 671.291 730.905 671.545 730.093 672.057C729.541 672.405 729.137 672.767 728.883 673.143C728.623 673.514 728.501 673.881 728.514 674.245C728.533 674.605 728.68 674.935 728.956 675.234C729.174 675.489 729.434 675.669 729.735 675.772C730.042 675.873 730.375 675.917 730.734 675.905C731.089 675.888 731.466 675.833 731.865 675.739C732.26 675.64 732.663 675.515 733.074 675.363L734.786 674.755C735.608 674.451 736.415 674.228 737.207 674.087C737.998 673.945 738.76 673.905 739.491 673.966C740.222 674.028 740.911 674.208 741.558 674.509C742.21 674.806 742.806 675.243 743.345 675.819C744.123 676.674 744.553 677.57 744.634 678.507C744.715 679.436 744.451 680.365 743.842 681.294C743.233 682.215 742.278 683.086 740.976 683.907C739.685 684.722 738.402 685.259 737.128 685.519C735.858 685.776 734.645 685.737 733.487 685.4C732.331 685.056 731.279 684.391 730.332 683.407L733.604 681.343C734.07 681.786 734.582 682.079 735.14 682.22C735.699 682.354 736.281 682.356 736.885 682.225C737.49 682.087 738.084 681.834 738.667 681.466C739.24 681.105 739.67 680.719 739.959 680.308C740.252 679.893 740.397 679.483 740.394 679.077C740.39 678.671 740.235 678.301 739.926 677.966C739.638 677.653 739.29 677.458 738.881 677.38C738.476 677.298 738.002 677.311 737.459 677.418C736.92 677.521 736.303 677.696 735.608 677.941L733.516 678.66C731.905 679.225 730.43 679.451 729.091 679.336C727.751 679.222 726.611 678.649 725.67 677.618C724.889 676.779 724.47 675.881 724.411 674.923C724.357 673.961 724.626 673.015 725.217 672.084C725.808 671.152 726.686 670.319 727.852 669.583C729.039 668.834 730.238 668.357 731.448 668.152C732.663 667.944 733.808 667.998 734.882 668.316C735.956 668.633 736.882 669.201 737.661 670.02L734.42 672.065Z" fill="#286181"/>
<rect width="333" height="111" rx="20" transform="matrix(0.845728 -0.533615 0.677261 0.735743 731 785.693)" fill="#868686"/>
<rect width="333" height="111" rx="20" transform="matrix(0.845728 -0.533615 0.677261 0.735743 730.998 771.694)" fill="white"/>
<path d="M798.223 794.41L785.417 780.498L788.798 778.365L794.082 784.105L800.946 779.774L795.662 774.034L799.035 771.906L811.841 785.818L808.468 787.946L803.178 782.199L796.314 786.53L801.604 792.277L798.223 794.41ZM814.629 784.059L801.823 770.147L812.599 763.348L814.831 765.773L807.436 770.438L810.488 773.753L817.328 769.438L819.56 771.863L812.72 776.179L815.778 779.5L823.204 774.815L825.436 777.24L814.629 784.059ZM828.093 775.564L815.287 761.652L818.668 759.518L829.242 771.005L836.098 766.68L838.33 769.105L828.093 775.564ZM840.569 767.692L827.763 753.78L831.144 751.646L841.718 763.133L848.574 758.808L850.806 761.233L840.569 767.692ZM860.715 743.985C862.112 745.502 862.969 747.001 863.288 748.482C863.611 749.96 863.464 751.338 862.846 752.616C862.23 753.886 861.216 754.966 859.805 755.856C858.384 756.752 856.85 757.276 855.203 757.427C853.557 757.579 851.916 757.329 850.28 756.679C848.645 756.028 847.131 754.947 845.738 753.434C844.342 751.917 843.482 750.419 843.158 748.941C842.834 747.463 842.981 746.089 843.598 744.82C844.21 743.545 845.227 742.46 846.648 741.563C848.059 740.673 849.588 740.152 851.234 740.001C852.882 739.842 854.524 740.088 856.159 740.738C857.8 741.385 859.319 742.467 860.715 743.985ZM857.287 746.147C856.383 745.165 855.45 744.443 854.491 743.981C853.537 743.517 852.594 743.302 851.664 743.338C850.734 743.373 849.861 743.649 849.043 744.165C848.226 744.68 847.673 745.305 847.385 746.038C847.097 746.771 847.095 747.581 847.377 748.47C847.665 749.355 848.262 750.289 849.166 751.271C850.071 752.254 851 752.978 851.955 753.442C852.914 753.904 853.859 754.116 854.789 754.081C855.719 754.045 856.593 753.77 857.41 753.254C858.227 752.738 858.78 752.114 859.068 751.381C859.356 750.648 859.356 749.839 859.068 748.954C858.785 748.066 858.192 747.13 857.287 746.147Z" fill="#286181"/>
<path d="M981.535 682.343L989.379 687.035L989.464 686.981L986.085 679.473L988.248 678.108L992.455 688.141L989.942 689.727L979.368 683.711L981.535 682.343ZM999.192 684.077C998.48 684.526 997.752 684.787 997.007 684.86C996.263 684.929 995.54 684.819 994.838 684.531C994.134 684.241 993.49 683.778 992.905 683.143C992.335 682.524 991.973 681.893 991.819 681.251C991.665 680.609 991.718 679.999 991.979 679.421C992.243 678.842 992.715 678.338 993.393 677.91C993.85 677.622 994.334 677.417 994.845 677.297C995.357 677.173 995.877 677.144 996.404 677.212C996.935 677.278 997.46 677.45 997.978 677.73C998.495 678.008 998.988 678.402 999.46 678.914L999.882 679.373L994.039 683.059L993.087 682.025L997.123 679.478C996.902 679.238 996.646 679.063 996.355 678.953C996.064 678.843 995.764 678.803 995.454 678.833C995.145 678.859 994.851 678.96 994.572 679.136C994.281 679.32 994.077 679.542 993.96 679.801C993.843 680.056 993.812 680.322 993.866 680.597C993.918 680.87 994.052 681.127 994.268 681.366L995.173 682.35C995.447 682.648 995.747 682.865 996.073 683.003C996.402 683.138 996.738 683.19 997.08 683.16C997.423 683.13 997.754 683.014 998.076 682.811C998.289 682.676 998.46 682.527 998.589 682.363C998.718 682.199 998.798 682.025 998.828 681.841C998.858 681.657 998.836 681.468 998.763 681.275L1000.63 680.257C1000.88 680.685 1001 681.125 1000.97 681.578C1000.95 682.027 1000.79 682.467 1000.49 682.897C1000.2 683.324 999.762 683.717 999.192 684.077ZM1006.75 679.31C1006.04 679.757 1005.31 680.011 1004.56 680.072C1003.81 680.129 1003.08 680.009 1002.38 679.714C1001.67 679.417 1001.04 678.964 1000.48 678.355C999.916 677.739 999.555 677.112 999.4 676.474C999.246 675.832 999.302 675.22 999.569 674.639C999.834 674.055 1000.32 673.542 1001.02 673.1C1001.62 672.719 1002.24 672.481 1002.86 672.386C1003.49 672.29 1004.1 672.332 1004.68 672.51C1005.26 672.688 1005.78 673.001 1006.24 673.449L1004.43 674.592C1004.1 674.323 1003.74 674.167 1003.35 674.123C1002.97 674.073 1002.6 674.16 1002.24 674.381C1001.95 674.569 1001.75 674.804 1001.66 675.085C1001.57 675.362 1001.58 675.672 1001.71 676.016C1001.83 676.361 1002.06 676.722 1002.41 677.101C1002.77 677.485 1003.13 677.774 1003.49 677.967C1003.87 678.158 1004.23 678.255 1004.58 678.255C1004.93 678.256 1005.26 678.163 1005.55 677.975C1005.77 677.837 1005.93 677.674 1006.03 677.485C1006.14 677.295 1006.18 677.09 1006.16 676.869C1006.14 676.643 1006.05 676.413 1005.89 676.179L1007.7 675.036C1008.09 675.515 1008.32 676.011 1008.38 676.524C1008.45 677.033 1008.35 677.527 1008.07 678.007C1007.8 678.487 1007.36 678.922 1006.75 679.31ZM1014.22 674.595C1013.51 675.044 1012.78 675.306 1012.03 675.379C1011.29 675.448 1010.57 675.338 1009.87 675.05C1009.16 674.759 1008.52 674.296 1007.93 673.661C1007.36 673.042 1007 672.411 1006.85 671.769C1006.69 671.127 1006.75 670.518 1007.01 669.94C1007.27 669.36 1007.74 668.856 1008.42 668.428C1008.88 668.14 1009.36 667.936 1009.87 667.816C1010.38 667.691 1010.9 667.662 1011.43 667.73C1011.96 667.796 1012.49 667.969 1013.01 668.249C1013.52 668.526 1014.02 668.921 1014.49 669.433L1014.91 669.891L1009.07 673.578L1008.11 672.543L1012.15 669.996C1011.93 669.756 1011.67 669.581 1011.38 669.471C1011.09 669.362 1010.79 669.322 1010.48 669.352C1010.17 669.377 1009.88 669.478 1009.6 669.654C1009.31 669.838 1009.1 670.06 1008.99 670.32C1008.87 670.575 1008.84 670.84 1008.89 671.116C1008.95 671.389 1009.08 671.645 1009.3 671.885L1010.2 672.868C1010.47 673.166 1010.77 673.384 1011.1 673.521C1011.43 673.656 1011.76 673.709 1012.11 673.679C1012.45 673.648 1012.78 673.532 1013.1 673.329C1013.32 673.195 1013.49 673.045 1013.62 672.881C1013.75 672.717 1013.83 672.543 1013.86 672.359C1013.89 672.175 1013.86 671.986 1013.79 671.793L1015.66 670.775C1015.91 671.203 1016.02 671.643 1016 672.097C1015.98 672.545 1015.82 672.985 1015.52 673.416C1015.22 673.842 1014.79 674.235 1014.22 674.595ZM1020.34 663.748L1018.66 664.951C1018.51 664.839 1018.34 664.762 1018.15 664.72C1017.95 664.675 1017.74 664.673 1017.52 664.713C1017.3 664.748 1017.08 664.835 1016.86 664.976C1016.56 665.163 1016.36 665.376 1016.26 665.615C1016.15 665.851 1016.18 666.059 1016.35 666.239C1016.48 666.383 1016.66 666.463 1016.88 666.479C1017.1 666.495 1017.4 666.431 1017.78 666.289L1019.24 665.718C1020.02 665.414 1020.7 665.29 1021.27 665.349C1021.85 665.407 1022.34 665.652 1022.74 666.086C1023.1 666.481 1023.28 666.911 1023.29 667.378C1023.3 667.842 1023.15 668.304 1022.84 668.763C1022.54 669.218 1022.08 669.634 1021.48 670.013C1020.56 670.591 1019.68 670.886 1018.83 670.897C1017.98 670.904 1017.25 670.649 1016.63 670.133L1018.44 668.856C1018.72 669.063 1019.03 669.161 1019.36 669.151C1019.7 669.138 1020.04 669.023 1020.38 668.807C1020.71 668.595 1020.93 668.368 1021.03 668.127C1021.13 667.882 1021.1 667.668 1020.94 667.485C1020.8 667.336 1020.61 667.258 1020.38 667.252C1020.14 667.244 1019.85 667.309 1019.5 667.446L1018.11 667.994C1017.33 668.303 1016.64 668.417 1016.04 668.335C1015.45 668.252 1014.94 667.985 1014.53 667.536C1014.17 667.149 1013.99 666.74 1013.97 666.309C1013.95 665.876 1014.1 665.445 1014.4 665.017C1014.7 664.587 1015.15 664.185 1015.74 663.812C1016.61 663.261 1017.45 662.987 1018.24 662.992C1019.04 662.995 1019.74 663.247 1020.34 663.748Z" fill="#286181"/>
<path d="M990.53 670.747L986.058 652.752L985.957 652.643L977.046 658.265L974.492 655.49L987.439 647.321L990.03 650.135L994.558 668.206L990.53 670.747Z" fill="#286181"/>
<path d="M810.771 808.592L800.92 797.89L803.52 796.249L807.585 800.664L812.865 797.333L808.8 792.918L811.395 791.28L821.246 801.982L818.651 803.619L814.582 799.199L809.302 802.53L813.371 806.951L810.771 808.592ZM823.39 800.629L813.539 789.927L821.828 784.697L823.546 786.563L817.857 790.152L820.205 792.702L825.467 789.382L827.184 791.247L821.922 794.567L824.274 797.123L829.986 793.518L831.704 795.384L823.39 800.629ZM833.747 794.094L823.896 783.393L826.497 781.752L834.631 790.588L839.905 787.26L841.622 789.126L833.747 794.094ZM843.344 788.039L833.493 777.337L836.094 775.696L844.228 784.533L849.502 781.205L851.219 783.071L843.344 788.039ZM858.841 769.803C859.915 770.97 860.575 772.123 860.82 773.263C861.069 774.4 860.956 775.459 860.481 776.442C860.006 777.419 859.226 778.25 858.141 778.934C857.048 779.624 855.868 780.027 854.601 780.143C853.335 780.26 852.073 780.068 850.814 779.567C849.556 779.067 848.392 778.235 847.321 777.072C846.246 775.905 845.585 774.753 845.336 773.616C845.087 772.479 845.199 771.422 845.674 770.445C846.145 769.465 846.928 768.63 848.021 767.94C849.106 767.255 850.282 766.855 851.548 766.739C852.816 766.616 854.079 766.805 855.337 767.306C856.599 767.803 857.767 768.636 858.841 769.803ZM856.204 771.466C855.508 770.71 854.792 770.155 854.053 769.8C853.319 769.443 852.595 769.278 851.879 769.305C851.164 769.333 850.492 769.545 849.863 769.941C849.234 770.338 848.809 770.818 848.588 771.382C848.366 771.946 848.364 772.57 848.581 773.253C848.803 773.934 849.262 774.652 849.957 775.408C850.653 776.164 851.368 776.721 852.102 777.078C852.84 777.433 853.567 777.596 854.283 777.569C854.998 777.542 855.67 777.33 856.299 776.933C856.928 776.536 857.353 776.056 857.574 775.492C857.796 774.928 857.796 774.306 857.574 773.625C857.357 772.942 856.9 772.222 856.204 771.466Z" fill="#71EB11"/>
<rect width="333" height="111" rx="20" transform="matrix(0.845728 -0.533615 0.677261 0.735743 828.866 895.693)" fill="#868686"/>
<rect width="333" height="111" rx="20" transform="matrix(0.845728 -0.533615 0.677261 0.735743 828.866 880.915)" fill="white"/>
<path d="M1081.1 790.497L1088.94 795.188L1089.02 795.134L1085.65 787.626L1087.81 786.262L1092.02 796.295L1089.5 797.881L1078.93 791.864L1081.1 790.497ZM1098.75 792.23C1098.04 792.679 1097.31 792.941 1096.57 793.014C1095.82 793.082 1095.1 792.973 1094.4 792.685C1093.69 792.394 1093.05 791.931 1092.47 791.296C1091.9 790.677 1091.53 790.046 1091.38 789.404C1091.22 788.762 1091.28 788.152 1091.54 787.575C1091.8 786.995 1092.27 786.491 1092.95 786.063C1093.41 785.775 1093.89 785.571 1094.41 785.451C1094.92 785.326 1095.44 785.297 1095.96 785.365C1096.49 785.431 1097.02 785.604 1097.54 785.884C1098.05 786.161 1098.55 786.555 1099.02 787.068L1099.44 787.526L1093.6 791.213L1092.65 790.178L1096.68 787.631C1096.46 787.391 1096.21 787.216 1095.91 787.106C1095.62 786.996 1095.32 786.957 1095.01 786.987C1094.71 787.012 1094.41 787.113 1094.13 787.289C1093.84 787.473 1093.64 787.695 1093.52 787.955C1093.4 788.21 1093.37 788.475 1093.43 788.751C1093.48 789.024 1093.61 789.28 1093.83 789.52L1094.73 790.503C1095.01 790.801 1095.31 791.019 1095.63 791.156C1095.96 791.291 1096.3 791.344 1096.64 791.314C1096.98 791.283 1097.31 791.167 1097.64 790.964C1097.85 790.83 1098.02 790.68 1098.15 790.516C1098.28 790.352 1098.36 790.178 1098.39 789.994C1098.42 789.81 1098.4 789.621 1098.32 789.428L1100.19 788.41C1100.44 788.838 1100.56 789.278 1100.53 789.732C1100.51 790.18 1100.35 790.62 1100.05 791.051C1099.76 791.477 1099.32 791.87 1098.75 792.23ZM1106.31 787.464C1105.6 787.911 1104.87 788.165 1104.12 788.226C1103.37 788.282 1102.64 788.163 1101.94 787.867C1101.23 787.57 1100.6 787.117 1100.04 786.508C1099.48 785.892 1099.11 785.265 1098.96 784.627C1098.81 783.985 1098.86 783.374 1099.13 782.792C1099.39 782.208 1099.88 781.695 1100.58 781.254C1101.18 780.873 1101.8 780.635 1102.42 780.539C1103.05 780.444 1103.66 780.485 1104.24 780.663C1104.82 780.841 1105.34 781.154 1105.8 781.602L1103.99 782.745C1103.66 782.477 1103.3 782.32 1102.91 782.276C1102.53 782.227 1102.16 782.313 1101.8 782.535C1101.51 782.722 1101.31 782.957 1101.22 783.238C1101.13 783.515 1101.14 783.825 1101.27 784.17C1101.39 784.514 1101.62 784.875 1101.97 785.254C1102.33 785.638 1102.69 785.927 1103.05 786.12C1103.43 786.312 1103.79 786.408 1104.14 786.409C1104.49 786.41 1104.82 786.316 1105.11 786.129C1105.33 785.99 1105.49 785.827 1105.6 785.639C1105.7 785.448 1105.74 785.243 1105.72 785.022C1105.7 784.797 1105.61 784.567 1105.45 784.332L1107.26 783.19C1107.65 783.668 1107.88 784.164 1107.94 784.677C1108.01 785.186 1107.91 785.68 1107.64 786.161C1107.36 786.641 1106.92 787.075 1106.31 787.464ZM1113.78 782.749C1113.07 783.198 1112.34 783.459 1111.59 783.532C1110.85 783.601 1110.13 783.491 1109.43 783.203C1108.72 782.912 1108.08 782.45 1107.49 781.815C1106.92 781.195 1106.56 780.565 1106.41 779.923C1106.25 779.281 1106.31 778.671 1106.57 778.093C1106.83 777.514 1107.3 777.01 1107.98 776.581C1108.44 776.293 1108.92 776.089 1109.43 775.969C1109.94 775.844 1110.46 775.816 1110.99 775.884C1111.52 775.949 1112.05 776.122 1112.57 776.402C1113.08 776.679 1113.58 777.074 1114.05 777.586L1114.47 778.045L1108.63 781.731L1107.67 780.697L1111.71 778.15C1111.49 777.909 1111.23 777.734 1110.94 777.625C1110.65 777.515 1110.35 777.475 1110.04 777.505C1109.73 777.531 1109.44 777.632 1109.16 777.808C1108.87 777.992 1108.66 778.213 1108.55 778.473C1108.43 778.728 1108.4 778.994 1108.45 779.269C1108.51 779.542 1108.64 779.798 1108.86 780.038L1109.76 781.022C1110.03 781.319 1110.33 781.537 1110.66 781.674C1110.99 781.81 1111.33 781.862 1111.67 781.832C1112.01 781.802 1112.34 781.685 1112.66 781.483C1112.88 781.348 1113.05 781.199 1113.18 781.035C1113.31 780.871 1113.39 780.697 1113.42 780.512C1113.45 780.328 1113.42 780.14 1113.35 779.946L1115.22 778.928C1115.47 779.356 1115.58 779.797 1115.56 780.25C1115.54 780.699 1115.38 781.138 1115.08 781.569C1114.78 781.995 1114.35 782.389 1113.78 782.749ZM1119.9 771.901L1118.22 773.104C1118.07 772.992 1117.9 772.915 1117.71 772.873C1117.51 772.829 1117.3 772.826 1117.08 772.866C1116.86 772.901 1116.64 772.989 1116.42 773.129C1116.12 773.317 1115.92 773.53 1115.82 773.768C1115.71 774.004 1115.74 774.212 1115.91 774.393C1116.04 774.536 1116.22 774.616 1116.44 774.632C1116.66 774.648 1116.96 774.585 1117.34 774.442L1118.8 773.871C1119.58 773.567 1120.26 773.444 1120.83 773.502C1121.41 773.56 1121.9 773.806 1122.3 774.239C1122.66 774.634 1122.85 775.065 1122.85 775.531C1122.86 775.996 1122.71 776.457 1122.4 776.916C1122.1 777.371 1121.64 777.788 1121.04 778.167C1120.12 778.745 1119.24 779.039 1118.39 779.05C1117.54 779.057 1116.81 778.802 1116.19 778.286L1118 777.009C1118.28 777.216 1118.59 777.314 1118.92 777.304C1119.26 777.291 1119.6 777.177 1119.94 776.961C1120.27 776.749 1120.49 776.522 1120.59 776.281C1120.7 776.035 1120.66 775.821 1120.5 775.639C1120.36 775.489 1120.17 775.411 1119.94 775.406C1119.7 775.397 1119.41 775.462 1119.06 775.599L1117.67 776.147C1116.89 776.456 1116.2 776.57 1115.6 776.488C1115.01 776.405 1114.5 776.138 1114.09 775.689C1113.73 775.302 1113.55 774.893 1113.53 774.462C1113.51 774.029 1113.66 773.599 1113.96 773.17C1114.26 772.74 1114.71 772.339 1115.3 771.965C1116.17 771.414 1117.01 771.141 1117.8 771.146C1118.6 771.149 1119.3 771.4 1119.9 771.901Z" fill="#286181"/>
<path d="M1096.38 775.277C1095.04 776.126 1093.65 776.681 1092.23 776.941C1090.81 777.193 1089.47 777.155 1088.21 776.827C1086.95 776.49 1085.88 775.86 1085 774.936L1088.93 772.457C1089.32 772.834 1089.78 773.086 1090.32 773.214C1090.87 773.332 1091.45 773.328 1092.05 773.202C1092.66 773.076 1093.25 772.833 1093.82 772.473C1094.41 772.098 1094.85 771.675 1095.14 771.204C1095.43 770.733 1095.55 770.254 1095.51 769.767C1095.47 769.28 1095.26 768.825 1094.87 768.402C1094.47 767.973 1093.99 767.681 1093.41 767.526C1092.83 767.363 1092.2 767.348 1091.51 767.482C1090.84 767.612 1090.15 767.897 1089.45 768.336L1087.73 769.422L1085.44 766.93L1087.16 765.844C1087.75 765.473 1088.19 765.056 1088.47 764.594C1088.76 764.128 1088.89 763.659 1088.86 763.186C1088.82 762.708 1088.6 762.258 1088.21 761.835C1087.84 761.432 1087.4 761.15 1086.9 760.987C1086.4 760.815 1085.88 760.768 1085.32 760.846C1084.77 760.919 1084.24 761.121 1083.71 761.451C1083.18 761.784 1082.78 762.173 1082.49 762.617C1082.2 763.056 1082.07 763.51 1082.08 763.98C1082.1 764.45 1082.28 764.894 1082.64 765.313L1078.9 767.672C1078.07 766.736 1077.62 765.729 1077.56 764.652C1077.5 763.576 1077.78 762.524 1078.42 761.498C1079.05 760.463 1079.99 759.547 1081.26 758.751C1082.53 757.948 1083.83 757.446 1085.15 757.246C1086.48 757.045 1087.72 757.121 1088.88 757.472C1090.04 757.814 1091.01 758.41 1091.78 759.26C1092.61 760.155 1092.98 761.108 1092.89 762.118C1092.8 763.124 1092.31 764.035 1091.43 764.848L1091.54 764.974C1093.04 764.269 1094.45 764.027 1095.77 764.249C1097.1 764.462 1098.22 765.069 1099.13 766.071C1099.98 766.981 1100.42 767.985 1100.47 769.082C1100.51 770.176 1100.19 771.264 1099.5 772.346C1098.8 773.428 1097.76 774.405 1096.38 775.277Z" fill="#286181"/>
<path d="M896.416 901.628L899.623 899.604L909.63 904.657L909.774 904.566L906.543 895.238L909.75 893.215L919.601 903.916L917.079 905.508L910.667 898.543L910.565 898.607L913.745 907.529L912.027 908.613L902.456 903.682L902.354 903.747L908.789 910.738L906.267 912.33L896.416 901.628ZM921.744 902.564L911.893 891.863L920.182 886.633L921.899 888.498L916.211 892.087L918.559 894.637L923.82 891.317L925.537 893.183L920.276 896.503L922.628 899.058L928.34 895.454L930.057 897.319L921.744 902.564ZM927.175 882.22L929.746 880.598L936.615 888.06C937.25 888.75 937.623 889.461 937.735 890.195C937.851 890.926 937.721 891.627 937.346 892.299C936.97 892.971 936.366 893.57 935.533 894.095C934.793 894.563 934.016 894.874 933.203 895.029C932.39 895.178 931.593 895.13 930.811 894.886C930.026 894.638 929.308 894.157 928.658 893.444L931.247 891.811C931.514 892.088 931.803 892.288 932.113 892.412C932.424 892.53 932.74 892.573 933.059 892.542C933.38 892.505 933.692 892.391 933.996 892.199C934.317 891.997 934.533 891.767 934.644 891.509C934.756 891.246 934.762 890.961 934.664 890.654C934.565 890.348 934.358 890.024 934.044 889.682L927.175 882.22ZM948.127 877.46C949.201 878.627 949.86 879.78 950.105 880.92C950.354 882.057 950.241 883.116 949.766 884.099C949.291 885.076 948.512 885.907 947.426 886.591C946.333 887.281 945.153 887.684 943.887 887.8C942.62 887.917 941.358 887.725 940.1 887.224C938.842 886.724 937.677 885.892 936.606 884.729C935.532 883.562 934.87 882.41 934.621 881.273C934.372 880.136 934.485 879.079 934.959 878.102C935.431 877.122 936.213 876.287 937.306 875.597C938.391 874.912 939.567 874.512 940.834 874.396C942.101 874.273 943.364 874.462 944.622 874.963C945.884 875.46 947.052 876.293 948.127 877.46ZM945.49 879.123C944.794 878.368 944.077 877.812 943.339 877.457C942.605 877.1 941.88 876.935 941.164 876.962C940.449 876.99 939.777 877.202 939.148 877.598C938.52 877.995 938.094 878.475 937.873 879.039C937.651 879.603 937.649 880.227 937.867 880.91C938.088 881.591 938.547 882.309 939.243 883.065C939.939 883.821 940.654 884.378 941.388 884.735C942.126 885.09 942.853 885.253 943.568 885.226C944.283 885.199 944.955 884.987 945.584 884.59C946.213 884.193 946.638 883.713 946.86 883.149C947.081 882.585 947.081 881.963 946.86 881.282C946.642 880.599 946.185 879.879 945.49 879.123ZM954.979 881.595L945.128 870.893L949.981 867.831C950.91 867.245 951.836 866.889 952.759 866.764C953.682 866.633 954.559 866.721 955.387 867.03C956.217 867.333 956.957 867.838 957.608 868.545C958.262 869.256 958.648 869.978 958.767 870.713C958.883 871.444 958.732 872.156 958.313 872.85C957.899 873.541 957.219 874.184 956.274 874.781L953.024 876.831L951.35 875.013L954.179 873.228C954.676 872.914 955.034 872.595 955.253 872.269C955.473 871.944 955.553 871.612 955.495 871.274C955.442 870.933 955.253 870.587 954.929 870.235C954.602 869.88 954.244 869.632 953.855 869.492C953.471 869.349 953.054 869.32 952.606 869.404C952.159 869.483 951.686 869.68 951.185 869.995L949.431 871.102L957.58 879.954L954.979 881.595ZM957.139 872.533L964.679 875.474L961.808 877.286L954.334 874.303L957.139 872.533Z" fill="#71EB11"/>
<path d="M893.719 898.148L880.913 884.236L887.316 880.196C888.493 879.454 889.613 878.986 890.679 878.794C891.744 878.601 892.723 878.65 893.614 878.939C894.502 879.224 895.267 879.715 895.909 880.412C896.409 880.956 896.724 881.512 896.853 882.082C896.979 882.647 896.944 883.199 896.748 883.738C896.554 884.269 896.228 884.764 895.771 885.224L895.896 885.36C896.526 884.998 897.234 884.788 898.019 884.729C898.809 884.667 899.6 884.78 900.392 885.068C901.18 885.352 901.888 885.835 902.518 886.519C903.197 887.257 903.593 888.049 903.705 888.895C903.818 889.733 903.62 890.577 903.111 891.428C902.602 892.279 901.749 893.082 900.552 893.837L893.719 898.148ZM894.887 893.61L897.643 891.871C898.586 891.277 899.129 890.687 899.273 890.102C899.414 889.512 899.242 888.955 898.758 888.429C898.404 888.044 897.985 887.772 897.5 887.612C897.016 887.453 896.499 887.414 895.949 887.496C895.404 887.575 894.861 887.785 894.32 888.126L891.485 889.915L894.887 893.61ZM889.653 887.925L892.16 886.343C892.623 886.051 892.97 885.721 893.2 885.354C893.431 884.979 893.529 884.595 893.496 884.201C893.467 883.803 893.284 883.421 892.947 883.054C892.484 882.552 891.905 882.276 891.21 882.228C890.521 882.176 889.801 882.387 889.052 882.86L886.483 884.48L889.653 887.925ZM908.257 888.976L895.451 875.064L906.226 868.265L908.459 870.69L901.064 875.355L904.116 878.67L910.956 874.355L913.188 876.78L906.348 881.096L909.406 884.417L916.832 879.732L919.064 882.157L908.257 888.976ZM910.538 869.378L908.305 866.953L921.439 858.666L923.672 861.091L918.776 864.18L929.35 875.667L926.008 877.776L915.434 866.289L910.538 869.378ZM925.226 860.111L922.993 857.685L936.127 849.399L938.36 851.824L933.464 854.913L944.038 866.4L940.696 868.509L930.122 857.021L925.226 860.111ZM951.097 861.946L938.29 848.034L949.066 841.235L951.299 843.66L943.904 848.326L946.955 851.641L953.796 847.325L956.028 849.75L949.188 854.066L952.246 857.388L959.671 852.702L961.904 855.127L951.097 861.946ZM964.561 853.451L951.754 839.539L958.064 835.558C959.271 834.796 960.475 834.333 961.675 834.171C962.876 834 964.015 834.115 965.092 834.517C966.17 834.91 967.132 835.567 967.978 836.486C968.829 837.41 969.331 838.349 969.486 839.304C969.637 840.254 969.44 841.18 968.896 842.082C968.357 842.98 967.473 843.817 966.244 844.592L962.02 847.258L959.844 844.894L963.522 842.573C964.167 842.166 964.632 841.751 964.918 841.327C965.203 840.904 965.308 840.473 965.232 840.033C965.162 839.591 964.917 839.141 964.496 838.683C964.071 838.222 963.605 837.899 963.1 837.717C962.6 837.531 962.059 837.493 961.477 837.603C960.896 837.705 960.28 837.961 959.629 838.371L957.349 839.81L967.942 851.318L964.561 853.451ZM967.369 841.671L977.172 845.494L973.439 847.849L963.722 843.972L967.369 841.671Z" fill="#286181"/>
<rect width="333" height="111" rx="20" transform="matrix(0.845728 -0.533615 0.677261 0.735743 927 1002.69)" fill="#868686"/>
<rect width="333" height="111" rx="20" transform="matrix(0.845728 -0.533615 0.677261 0.735743 928.421 989.071)" fill="white"/>
<rect width="92" height="18" rx="9" transform="matrix(0.845728 -0.533615 0.677261 0.735743 984.435 999.089)" fill="#286181"/>
<rect width="27" height="24" rx="12" transform="matrix(0.845728 -0.533615 0.677261 0.735743 1169.98 873.875)" fill="#286181"/>
<rect width="50" height="8" rx="4" transform="matrix(0.845728 -0.533615 0.677261 0.735743 1178.8 900.879)" fill="#286181"/>
<rect width="71" height="13" rx="6.5" transform="matrix(0.845728 -0.533615 0.677261 0.735743 998.657 1014.54)" fill="#71EB11"/>
<defs>
<filter id="filter0_f_636_2646" x="0.292969" y="0.395508" width="1758.9" height="1735.6" filterUnits="userSpaceOnUse" color-interpolation-filters="sRGB">
<feFlood flood-opacity="0" result="BackgroundImageFix"/>
<feBlend mode="normal" in="SourceGraphic" in2="BackgroundImageFix" result="shape"/>
<feGaussianBlur stdDeviation="250" result="effect1_foregroundBlur_636_2646"/>
</filter>
<clipPath id="clip0_636_2646">
<rect width="402" height="46" rx="23" transform="matrix(0.845728 -0.533615 0.677261 0.735743 404.645 641.094)" fill="white"/>
</clipPath>
<clipPath id="clip1_636_2646">
<rect width="54" height="21" rx="10.5" transform="matrix(0.845728 -0.533615 0.677261 0.735743 430.532 638.717)" fill="white"/>
</clipPath>
<clipPath id="clip2_636_2646">
<rect width="375" height="32" rx="16" transform="matrix(0.845728 -0.533615 0.677261 0.735743 1005.53 1274.99)" fill="white"/>
</clipPath>
</defs>
</svg>
