<svg width="995" height="960" viewBox="0 0 995 960" fill="none" xmlns="http://www.w3.org/2000/svg">
<rect width="430" height="932" rx="30" transform="matrix(0.845728 -0.533615 0.677261 0.735743 0 273.454)" fill="#636060"/>
<rect width="430" height="932" rx="30" transform="matrix(0.845728 -0.533615 0.677261 0.735743 0 230)" fill="#D9D9D9"/>
<g clip-path="url(#clip0_636_2646)">
<rect width="402" height="46" rx="23" transform="matrix(0.845728 -0.533615 0.677261 0.735743 20.6445 232.094)" fill="#D9D9D9"/>
<path fill-rule="evenodd" clip-rule="evenodd" d="M314.126 70.1822L314.972 69.6486C315.439 69.3539 316.121 69.4444 316.495 69.8507L320.558 74.2652C320.932 74.6715 320.857 75.2398 320.39 75.5345L319.544 76.0681C319.077 76.3629 318.395 76.2724 318.021 75.866L313.958 71.4516C313.583 71.0452 313.659 70.4769 314.126 70.1822Z" fill="#F9F9F9"/>
<path fill-rule="evenodd" clip-rule="evenodd" d="M311.675 74.0553L312.521 73.5216C312.988 73.2269 313.67 73.3174 314.044 73.7238L316.753 76.6667C317.127 77.0731 317.051 77.6414 316.584 77.9361L315.738 78.4697C315.271 78.7644 314.589 78.6739 314.215 78.2676L311.506 75.3246C311.132 74.9183 311.208 74.35 311.675 74.0553Z" fill="#F9F9F9"/>
<path fill-rule="evenodd" clip-rule="evenodd" d="M308.885 77.5601L309.731 77.0265C310.198 76.7318 310.879 76.8223 311.254 77.2286L312.947 79.068C313.321 79.4743 313.245 80.0427 312.778 80.3374L311.932 80.871C311.465 81.1657 310.784 81.0752 310.409 80.6688L308.716 78.8295C308.342 78.4232 308.418 77.8548 308.885 77.5601Z" fill="#F9F9F9"/>
<path fill-rule="evenodd" clip-rule="evenodd" d="M316.577 66.3092L317.423 65.7755C317.89 65.4808 318.572 65.5713 318.946 65.9777L324.364 71.8636C324.738 72.27 324.663 72.8383 324.196 73.133L323.35 73.6666C322.883 73.9613 322.201 73.8708 321.827 73.4645L316.409 67.5785C316.035 67.1722 316.11 66.6039 316.577 66.3092Z" fill="#3C3C43" fill-opacity="0.18"/>
<path fill-rule="evenodd" clip-rule="evenodd" d="M314.126 70.1822L314.972 69.6486C315.439 69.3539 316.121 69.4444 316.495 69.8507L320.558 74.2652C320.932 74.6715 320.857 75.2398 320.39 75.5345L319.544 76.0681C319.077 76.3629 318.395 76.2724 318.021 75.866L313.958 71.4516C313.583 71.0452 313.659 70.4769 314.126 70.1822Z" fill="black"/>
<path fill-rule="evenodd" clip-rule="evenodd" d="M311.675 74.0553L312.521 73.5216C312.988 73.2269 313.67 73.3174 314.044 73.7238L316.753 76.6667C317.127 77.0731 317.051 77.6414 316.584 77.9361L315.738 78.4697C315.271 78.7644 314.589 78.6739 314.215 78.2676L311.506 75.3246C311.132 74.9183 311.208 74.35 311.675 74.0553Z" fill="black"/>
<path fill-rule="evenodd" clip-rule="evenodd" d="M308.885 77.5601L309.731 77.0265C310.198 76.7318 310.879 76.8223 311.254 77.2286L312.947 79.068C313.321 79.4743 313.245 80.0427 312.778 80.3374L311.932 80.871C311.465 81.1657 310.784 81.0752 310.409 80.6688L308.716 78.8295C308.342 78.4232 308.418 77.8548 308.885 77.5601Z" fill="black"/>
<path d="M334.498 63.0731C335.039 62.7319 335.678 62.5239 336.358 62.4675L336.634 62.4447C336.843 62.4273 337.024 62.581 337 62.7558L336.678 65.1562C336.658 65.3036 336.498 65.4043 336.321 65.381L333.459 65.0045C333.25 64.977 333.119 64.7931 333.193 64.6312L333.29 64.4182C333.535 63.8816 333.95 63.4189 334.498 63.0731Z" fill="black"/>
<path d="M332.148 60.5209C333.493 59.672 335.143 59.2452 336.857 59.3003L337.099 59.3081C337.292 59.3143 337.443 59.4604 337.422 59.6203L337.229 61.0534C337.211 61.1859 337.079 61.283 336.919 61.2815L336.733 61.2797C335.6 61.2686 334.516 61.5628 333.625 62.1251C332.728 62.6908 332.096 63.4843 331.81 64.399L331.764 64.5487C331.724 64.6774 331.575 64.7574 331.416 64.7364L329.696 64.5102C329.505 64.485 329.375 64.3264 329.418 64.1707L329.472 63.9757C329.859 62.5847 330.796 61.3739 332.148 60.5209Z" fill="black"/>
<path d="M329.798 57.9673C331.933 56.6201 334.578 55.987 337.3 56.1683L337.532 56.1837C337.72 56.1962 337.862 56.3398 337.842 56.4953L337.65 57.9237C337.631 58.0621 337.489 58.1608 337.321 58.1512L337.124 58.1398C335 58.017 332.941 58.5198 331.275 59.5715C329.602 60.6267 328.469 62.1433 328.052 63.8788L328.013 64.0396C327.98 64.1758 327.827 64.2637 327.661 64.2418L325.947 64.0163C325.76 63.9918 325.631 63.8404 325.666 63.6873L325.709 63.4981C326.216 61.2696 327.656 59.3185 329.798 57.9673Z" fill="black"/>
<path d="M362.164 41.0352V41.0352C362.631 40.7404 363.313 40.8309 363.687 41.2373L365.041 42.7088C365.415 43.1151 365.34 43.6834 364.873 43.9781V43.9781L362.164 41.0352Z" fill="#3C3C43" fill-opacity="0.6"/>
<path fill-rule="evenodd" clip-rule="evenodd" d="M341.694 49.2976L356.072 40.2261C357.473 39.342 359.519 39.6135 360.641 40.8325L364.704 45.247C365.826 46.466 365.6 48.1709 364.199 49.0551L349.822 58.1265C348.42 59.0106 346.375 58.7391 345.253 57.5201L341.189 53.1057C340.067 51.8866 340.293 50.1817 341.694 49.2976ZM342.372 50.0333C341.438 50.6228 341.287 51.7594 342.035 52.5721L346.098 56.9865C346.846 57.7992 348.21 57.9802 349.144 57.3908L363.522 48.3193C364.456 47.7299 364.607 46.5933 363.859 45.7806L359.795 41.3661C359.047 40.5535 357.683 40.3725 356.749 40.9619L342.372 50.0333Z" fill="#3C3C43" fill-opacity="0.6"/>
<rect width="19" height="8" rx="1" transform="matrix(0.845728 -0.533615 0.677261 0.735743 342.203 51.3027)" fill="black"/>
<g clip-path="url(#clip1_636_2646)">
<path d="M71.6932 232.554C73.9666 231.12 73.8933 228.721 71.4825 226.102C70.5748 225.116 69.5941 224.423 68.5887 224.043C67.0702 223.426 65.5397 223.539 64.2327 224.364C62.2877 225.591 61.9592 227.596 63.4275 229.191C64.8065 230.689 67.0474 230.996 68.7508 229.921C69.7976 229.261 70.2544 228.3 69.996 227.296L70.0146 227.284C70.0146 227.284 70.0394 227.268 70.0456 227.264C70.058 227.256 70.1013 227.229 70.1013 227.229C71.7383 229.007 71.9412 230.558 70.6342 231.382C69.8661 231.867 68.9341 231.876 68.189 231.417L66.5971 232.422C68.0391 233.531 70.058 233.586 71.6932 232.554ZM68.118 228.574C67.0897 229.223 65.7735 229.048 64.955 228.159C64.1564 227.292 64.3143 226.144 65.3116 225.515C66.3089 224.886 67.697 225.075 68.5056 225.953C69.3042 226.821 69.14 227.929 68.118 228.574Z" fill="black"/>
<path d="M77.8617 228.543C78.4502 228.171 78.5155 227.551 78.069 227.066C77.6176 226.576 76.8827 226.469 76.2942 226.84C75.712 227.207 75.6355 227.826 76.0869 228.317C76.5333 228.802 77.2794 228.91 77.8617 228.543ZM74.1414 224.501C74.7299 224.13 74.8001 223.515 74.3537 223.03C73.9023 222.539 73.1673 222.432 72.5789 222.804C71.9966 223.171 71.9201 223.79 72.3715 224.28C72.818 224.765 73.5591 224.869 74.1414 224.501Z" fill="black"/>
<path d="M84.5467 224.146L86.0767 223.181L84.7424 221.731L85.9503 220.969L84.8689 219.794L83.661 220.556L78.9189 215.405L76.6641 216.827C76.9894 219.893 77.3242 222.416 77.7045 224.212L78.8454 225.452L83.2124 222.696L84.5467 224.146ZM79.1998 223.294C78.7722 221.043 78.5257 219.179 78.3686 217.541L78.4553 217.486L82.1856 221.538L79.2742 223.375L79.1998 223.294Z" fill="black"/>
<path d="M90.6917 220.269L92.2898 219.26L85.132 211.484L83.54 212.489L82.5143 215.385L83.7445 216.721L84.7183 213.96L84.8236 213.894L90.6917 220.269Z" fill="black"/>
</g>
</g>
<g clip-path="url(#clip2_636_2646)">
<rect width="375" height="32" rx="16" transform="matrix(0.845728 -0.533615 0.677261 0.735743 621.534 865.989)" fill="#D9D9D9"/>
<rect width="134" height="5" rx="2.5" transform="matrix(0.845728 -0.533615 0.677261 0.735743 738.089 816.872)" fill="black"/>
</g>
<path d="M186.235 364.167L184.003 361.742L197.137 353.455L199.369 355.88L194.473 358.969L205.047 370.456L201.705 372.565L191.131 361.078L186.235 364.167ZM209.177 345.857L212.559 343.724L220.875 352.759C221.809 353.773 222.348 354.837 222.491 355.949C222.64 357.058 222.413 358.139 221.81 359.192C221.204 360.241 220.239 361.182 218.917 362.016C217.589 362.854 216.235 363.376 214.853 363.582C213.467 363.784 212.147 363.678 210.895 363.265C209.643 362.853 208.55 362.139 207.616 361.125L199.3 352.09L202.681 349.957L210.766 358.74C211.254 359.27 211.82 359.657 212.465 359.902C213.115 360.143 213.793 360.227 214.499 360.154C215.205 360.081 215.884 359.839 216.534 359.428C217.19 359.014 217.652 358.537 217.919 357.996C218.192 357.452 218.271 356.89 218.157 356.31C218.049 355.727 217.751 355.171 217.263 354.641L209.177 345.857ZM227.699 340.496C227.132 339.988 226.472 339.731 225.719 339.727C224.966 339.722 224.183 339.976 223.371 340.489C222.819 340.837 222.416 341.199 222.161 341.574C221.902 341.945 221.779 342.313 221.793 342.676C221.812 343.037 221.959 343.366 222.234 343.665C222.453 343.921 222.713 344.1 223.014 344.204C223.32 344.304 223.653 344.348 224.012 344.336C224.368 344.32 224.745 344.265 225.143 344.17C225.538 344.072 225.941 343.946 226.352 343.794L228.064 343.187C228.887 342.882 229.694 342.659 230.486 342.518C231.277 342.377 232.038 342.336 232.77 342.398C233.501 342.459 234.19 342.64 234.837 342.94C235.489 343.238 236.084 343.675 236.623 344.251C237.402 345.106 237.831 346.001 237.912 346.938C237.994 347.868 237.73 348.797 237.12 349.725C236.511 350.646 235.556 351.518 234.255 352.339C232.964 353.153 231.681 353.691 230.406 353.951C229.137 354.208 227.923 354.168 226.766 353.831C225.61 353.487 224.558 352.823 223.611 351.838L226.882 349.774C227.348 350.218 227.86 350.51 228.419 350.652C228.978 350.786 229.56 350.787 230.164 350.657C230.769 350.518 231.363 350.265 231.946 349.897C232.519 349.536 232.949 349.15 233.237 348.739C233.531 348.325 233.676 347.915 233.672 347.509C233.669 347.103 233.513 346.732 233.205 346.397C232.917 346.085 232.568 345.889 232.159 345.811C231.755 345.73 231.281 345.742 230.737 345.849C230.199 345.953 229.582 346.127 228.886 346.373L226.795 347.091C225.184 347.656 223.709 347.882 222.369 347.768C221.03 347.654 219.89 347.081 218.949 346.05C218.168 345.211 217.748 344.312 217.689 343.354C217.636 342.393 217.904 341.447 218.495 340.515C219.086 339.584 219.965 338.75 221.131 338.015C222.318 337.266 223.516 336.789 224.727 336.584C225.942 336.375 227.087 336.43 228.161 336.747C229.235 337.065 230.161 337.633 230.939 338.452L227.699 340.496ZM247.645 343.579L234.838 329.667L241.148 325.686C242.361 324.92 243.579 324.47 244.804 324.334C246.025 324.194 247.186 324.338 248.288 324.767C249.392 325.188 250.368 325.86 251.219 326.784C252.069 327.708 252.591 328.667 252.783 329.663C252.975 330.658 252.818 331.627 252.311 332.57C251.81 333.509 250.945 334.366 249.716 335.142L245.695 337.679L243.525 335.322L247 333.129C247.65 332.719 248.097 332.283 248.339 331.822C248.583 331.354 248.648 330.879 248.535 330.399C248.424 329.911 248.157 329.439 247.736 328.981C247.311 328.519 246.833 328.184 246.303 327.974C245.774 327.757 245.208 327.688 244.606 327.767C244 327.841 243.369 328.086 242.713 328.499L240.433 329.938L251.026 341.446L247.645 343.579ZM262.791 334.022L259.168 336.308L251.883 318.913L256.24 316.163L274.559 326.597L270.936 328.883L257.05 320.678L256.925 320.757L262.791 334.022ZM257.531 328.696L266.089 323.297L268.203 325.593L259.645 330.993L257.531 328.696ZM276.484 325.383L263.677 311.471L267.058 309.337L277.633 320.824L284.488 316.499L286.721 318.924L276.484 325.383ZM292.124 315.514L288.501 317.8L281.215 300.405L285.573 297.656L303.892 308.09L300.269 310.376L286.383 302.17L286.258 302.249L292.124 315.514ZM286.864 310.189L295.422 304.789L297.536 307.085L288.978 312.485L286.864 310.189ZM305.817 306.875L293.01 292.963L299.413 288.923C300.59 288.181 301.711 287.713 302.776 287.521C303.841 287.328 304.82 287.376 305.712 287.666C306.599 287.951 307.364 288.442 308.006 289.139C308.506 289.682 308.821 290.239 308.951 290.809C309.076 291.374 309.041 291.926 308.845 292.465C308.651 292.995 308.325 293.491 307.868 293.951L307.993 294.087C308.623 293.725 309.331 293.515 310.116 293.456C310.907 293.394 311.698 293.507 312.489 293.795C313.277 294.078 313.985 294.562 314.615 295.246C315.294 295.984 315.69 296.776 315.802 297.622C315.915 298.46 315.717 299.304 315.208 300.155C314.7 301.006 313.846 301.809 312.649 302.564L305.817 306.875ZM306.984 302.337L309.741 300.598C310.683 300.003 311.226 299.414 311.371 298.828C311.511 298.239 311.339 297.681 310.856 297.156C310.501 296.771 310.082 296.499 309.597 296.339C309.113 296.179 308.596 296.141 308.046 296.223C307.501 296.301 306.958 296.512 306.417 296.853L303.582 298.642L306.984 302.337ZM301.75 296.651L304.257 295.07C304.72 294.777 305.067 294.448 305.297 294.081C305.528 293.706 305.626 293.321 305.593 292.927C305.565 292.53 305.382 292.148 305.044 291.781C304.581 291.278 304.002 291.003 303.308 290.954C302.618 290.903 301.899 291.113 301.149 291.586L298.58 293.207L301.75 296.651ZM320.354 297.703L307.548 283.79L313.857 279.809C315.065 279.047 316.269 278.585 317.468 278.422C318.669 278.252 319.808 278.367 320.885 278.768C321.964 279.162 322.926 279.818 323.772 280.738C324.622 281.662 325.125 282.601 325.28 283.556C325.43 284.506 325.233 285.432 324.689 286.334C324.15 287.232 323.266 288.069 322.038 288.844L317.813 291.51L315.637 289.146L319.315 286.825C319.961 286.418 320.426 286.002 320.711 285.579C320.996 285.156 321.101 284.724 321.026 284.285C320.956 283.843 320.71 283.393 320.289 282.935C319.864 282.473 319.399 282.151 318.894 281.969C318.394 281.783 317.853 281.745 317.27 281.855C316.689 281.956 316.073 282.213 315.423 282.623L313.143 284.062L323.735 295.569L320.354 297.703ZM323.163 285.922L332.965 289.746L329.233 292.101L319.516 288.223L323.163 285.922ZM337.541 286.859L333.918 289.145L326.632 271.749L330.989 269L349.308 279.434L345.685 281.72L331.8 273.514L331.675 273.593L337.541 286.859ZM332.281 281.533L340.839 276.133L342.952 278.429L334.394 283.829L332.281 281.533ZM350.42 263.065C349.853 262.556 349.193 262.3 348.44 262.295C347.687 262.291 346.905 262.545 346.093 263.057C345.541 263.405 345.137 263.767 344.883 264.143C344.623 264.514 344.501 264.881 344.514 265.245C344.533 265.605 344.68 265.935 344.956 266.234C345.174 266.489 345.434 266.669 345.735 266.772C346.042 266.873 346.375 266.917 346.734 266.905C347.089 266.888 347.466 266.833 347.865 266.739C348.26 266.64 348.663 266.515 349.074 266.363L350.786 265.755C351.608 265.451 352.415 265.228 353.207 265.087C353.998 264.945 354.76 264.905 355.491 264.966C356.222 265.028 356.911 265.208 357.558 265.509C358.21 265.806 358.806 266.243 359.345 266.819C360.123 267.674 360.553 268.57 360.634 269.507C360.715 270.436 360.451 271.365 359.842 272.294C359.233 273.215 358.278 274.086 356.976 274.907C355.685 275.722 354.402 276.259 353.128 276.519C351.858 276.776 350.645 276.737 349.487 276.4C348.331 276.056 347.279 275.391 346.332 274.407L349.604 272.343C350.07 272.786 350.582 273.079 351.14 273.22C351.699 273.354 352.281 273.356 352.885 273.225C353.49 273.087 354.084 272.834 354.667 272.466C355.24 272.105 355.67 271.719 355.959 271.308C356.252 270.893 356.397 270.483 356.394 270.077C356.39 269.671 356.235 269.301 355.926 268.966C355.638 268.653 355.29 268.458 354.881 268.38C354.476 268.298 354.002 268.311 353.459 268.418C352.92 268.521 352.303 268.696 351.608 268.941L349.516 269.66C347.905 270.225 346.43 270.451 345.091 270.336C343.751 270.222 342.611 269.649 341.67 268.618C340.889 267.779 340.47 266.881 340.411 265.923C340.357 264.961 340.626 264.015 341.217 263.084C341.808 262.152 342.686 261.319 343.852 260.583C345.039 259.834 346.238 259.357 347.448 259.152C348.663 258.944 349.808 258.998 350.882 259.316C351.956 259.633 352.882 260.201 353.661 261.02L350.42 263.065Z" fill="#286181"/>
<rect width="333" height="111" rx="20" transform="matrix(0.845728 -0.533615 0.677261 0.735743 347 376.693)" fill="#868686"/>
<rect width="333" height="111" rx="20" transform="matrix(0.845728 -0.533615 0.677261 0.735743 346.998 362.694)" fill="white"/>
<path d="M414.223 385.41L401.417 371.498L404.798 369.365L410.082 375.105L416.946 370.774L411.662 365.034L415.035 362.906L427.841 376.818L424.468 378.946L419.178 373.199L412.314 377.53L417.604 383.277L414.223 385.41ZM430.629 375.059L417.823 361.147L428.599 354.348L430.831 356.773L423.436 361.438L426.488 364.753L433.328 360.438L435.56 362.863L428.72 367.179L431.778 370.5L439.204 365.815L441.436 368.24L430.629 375.059ZM444.093 366.564L431.287 352.652L434.668 350.518L445.242 362.005L452.098 357.68L454.33 360.105L444.093 366.564ZM456.569 358.692L443.763 344.78L447.144 342.646L457.718 354.133L464.574 349.808L466.806 352.233L456.569 358.692ZM476.715 334.985C478.112 336.502 478.969 338.001 479.288 339.482C479.611 340.96 479.464 342.338 478.846 343.616C478.23 344.886 477.216 345.966 475.805 346.856C474.384 347.752 472.85 348.276 471.203 348.427C469.557 348.579 467.916 348.329 466.28 347.679C464.645 347.028 463.131 345.947 461.738 344.434C460.342 342.917 459.482 341.419 459.158 339.941C458.834 338.463 458.981 337.089 459.598 335.82C460.21 334.545 461.227 333.46 462.648 332.563C464.059 331.673 465.588 331.152 467.234 331.001C468.882 330.842 470.524 331.088 472.159 331.738C473.8 332.385 475.319 333.467 476.715 334.985ZM473.287 337.147C472.383 336.165 471.45 335.443 470.491 334.981C469.537 334.517 468.594 334.302 467.664 334.338C466.734 334.373 465.861 334.649 465.043 335.165C464.226 335.68 463.673 336.305 463.385 337.038C463.097 337.771 463.095 338.581 463.377 339.47C463.665 340.355 464.262 341.289 465.166 342.271C466.071 343.254 467 343.978 467.955 344.442C468.914 344.904 469.859 345.116 470.789 345.081C471.719 345.045 472.593 344.77 473.41 344.254C474.227 343.738 474.78 343.114 475.068 342.381C475.356 341.648 475.356 340.839 475.068 339.954C474.785 339.066 474.192 338.13 473.287 337.147Z" fill="#286181"/>
<path d="M597.535 273.343L605.379 278.035L605.464 277.981L602.085 270.473L604.248 269.108L608.455 279.141L605.942 280.727L595.368 274.711L597.535 273.343ZM615.192 275.077C614.48 275.526 613.752 275.787 613.007 275.86C612.263 275.929 611.54 275.819 610.838 275.531C610.134 275.241 609.49 274.778 608.905 274.143C608.335 273.524 607.973 272.893 607.819 272.251C607.665 271.609 607.718 270.999 607.979 270.421C608.243 269.842 608.715 269.338 609.393 268.91C609.85 268.622 610.334 268.417 610.845 268.297C611.357 268.173 611.877 268.144 612.404 268.212C612.935 268.278 613.46 268.45 613.978 268.73C614.495 269.008 614.988 269.402 615.46 269.914L615.882 270.373L610.039 274.059L609.087 273.025L613.123 270.478C612.902 270.238 612.646 270.063 612.355 269.953C612.064 269.843 611.764 269.803 611.454 269.833C611.145 269.859 610.851 269.96 610.572 270.136C610.281 270.32 610.077 270.542 609.96 270.801C609.843 271.056 609.812 271.322 609.866 271.597C609.918 271.87 610.052 272.127 610.268 272.366L611.173 273.35C611.447 273.648 611.747 273.865 612.073 274.003C612.402 274.138 612.738 274.19 613.08 274.16C613.423 274.13 613.754 274.014 614.076 273.811C614.289 273.676 614.46 273.527 614.589 273.363C614.718 273.199 614.798 273.025 614.828 272.841C614.858 272.657 614.836 272.468 614.763 272.275L616.631 271.257C616.883 271.685 616.996 272.125 616.972 272.578C616.948 273.027 616.788 273.467 616.491 273.897C616.195 274.324 615.762 274.717 615.192 275.077ZM622.746 270.31C622.038 270.757 621.308 271.011 620.557 271.072C619.806 271.129 619.079 271.009 618.375 270.714C617.674 270.417 617.044 269.964 616.483 269.355C615.916 268.739 615.555 268.112 615.4 267.474C615.246 266.832 615.302 266.22 615.569 265.639C615.834 265.055 616.316 264.542 617.016 264.1C617.619 263.719 618.236 263.481 618.865 263.386C619.494 263.29 620.099 263.332 620.681 263.51C621.263 263.688 621.781 264.001 622.236 264.449L620.425 265.592C620.098 265.323 619.74 265.167 619.353 265.123C618.966 265.073 618.596 265.16 618.245 265.381C617.948 265.569 617.753 265.804 617.66 266.085C617.569 266.362 617.584 266.672 617.706 267.016C617.828 267.361 618.064 267.722 618.412 268.101C618.766 268.485 619.127 268.774 619.494 268.967C619.865 269.158 620.227 269.255 620.579 269.255C620.931 269.256 621.256 269.163 621.553 268.975C621.772 268.837 621.933 268.674 622.035 268.485C622.14 268.295 622.181 268.09 622.158 267.869C622.136 267.643 622.045 267.413 621.886 267.179L623.697 266.036C624.091 266.515 624.319 267.011 624.383 267.524C624.448 268.033 624.345 268.527 624.075 269.007C623.805 269.487 623.362 269.922 622.746 270.31ZM630.219 265.595C629.507 266.044 628.779 266.306 628.035 266.379C627.291 266.448 626.568 266.338 625.866 266.05C625.161 265.759 624.517 265.296 623.933 264.661C623.363 264.042 623 263.411 622.846 262.769C622.692 262.127 622.745 261.518 623.006 260.94C623.271 260.36 623.742 259.856 624.421 259.428C624.877 259.14 625.361 258.936 625.872 258.816C626.384 258.691 626.904 258.662 627.432 258.73C627.962 258.796 628.487 258.969 629.006 259.249C629.522 259.526 630.016 259.921 630.487 260.433L630.909 260.891L625.066 264.578L624.114 263.543L628.15 260.996C627.929 260.756 627.673 260.581 627.382 260.471C627.091 260.362 626.791 260.322 626.482 260.352C626.173 260.377 625.879 260.478 625.599 260.654C625.308 260.838 625.104 261.06 624.987 261.32C624.87 261.575 624.839 261.84 624.894 262.116C624.945 262.389 625.079 262.645 625.295 262.885L626.201 263.868C626.475 264.166 626.775 264.384 627.101 264.521C627.429 264.656 627.765 264.709 628.107 264.679C628.45 264.648 628.782 264.532 629.103 264.329C629.316 264.195 629.488 264.045 629.617 263.881C629.746 263.717 629.825 263.543 629.855 263.359C629.885 263.175 629.863 262.986 629.79 262.793L631.659 261.775C631.91 262.203 632.024 262.643 631.999 263.097C631.976 263.545 631.815 263.985 631.519 264.416C631.223 264.842 630.789 265.235 630.219 265.595ZM636.335 254.748L634.665 255.951C634.515 255.839 634.342 255.762 634.146 255.72C633.949 255.675 633.74 255.673 633.52 255.713C633.301 255.748 633.08 255.835 632.858 255.976C632.56 256.163 632.36 256.376 632.257 256.615C632.151 256.851 632.181 257.059 632.347 257.239C632.48 257.383 632.658 257.463 632.881 257.479C633.105 257.495 633.405 257.431 633.781 257.289L635.236 256.718C636.019 256.414 636.699 256.29 637.274 256.349C637.85 256.407 638.338 256.652 638.737 257.086C639.1 257.481 639.285 257.911 639.292 258.378C639.302 258.842 639.152 259.304 638.844 259.763C638.536 260.218 638.081 260.634 637.481 261.013C636.565 261.591 635.682 261.886 634.833 261.897C633.985 261.904 633.25 261.649 632.627 261.133L634.436 259.856C634.716 260.063 635.025 260.161 635.362 260.151C635.697 260.138 636.035 260.023 636.378 259.807C636.714 259.595 636.933 259.368 637.034 259.127C637.135 258.882 637.104 258.668 636.941 258.485C636.799 258.336 636.611 258.258 636.378 258.252C636.142 258.244 635.85 258.309 635.502 258.446L634.112 258.994C633.328 259.303 632.638 259.417 632.04 259.335C631.446 259.252 630.942 258.985 630.528 258.536C630.172 258.149 629.986 257.74 629.969 257.309C629.955 256.876 630.097 256.445 630.396 256.017C630.698 255.587 631.145 255.185 631.737 254.812C632.611 254.261 633.446 253.987 634.244 253.992C635.044 253.995 635.741 254.247 636.335 254.748Z" fill="#286181"/>
<path d="M606.53 261.747L602.058 243.752L601.957 243.643L593.046 249.265L590.492 246.49L603.439 238.321L606.03 241.135L610.558 259.206L606.53 261.747Z" fill="#286181"/>
<path d="M426.771 399.592L416.92 388.89L419.52 387.249L423.585 391.664L428.865 388.333L424.8 383.918L427.395 382.28L437.246 392.982L434.651 394.619L430.582 390.199L425.302 393.53L429.371 397.951L426.771 399.592ZM439.39 391.629L429.539 380.927L437.828 375.697L439.546 377.563L433.857 381.152L436.205 383.702L441.467 380.382L443.184 382.247L437.922 385.567L440.274 388.123L445.986 384.518L447.704 386.384L439.39 391.629ZM449.747 385.094L439.896 374.393L442.497 372.752L450.631 381.588L455.905 378.26L457.622 380.126L449.747 385.094ZM459.344 379.039L449.493 368.337L452.094 366.696L460.228 375.533L465.502 372.205L467.219 374.071L459.344 379.039ZM474.841 360.803C475.915 361.97 476.575 363.123 476.82 364.263C477.069 365.4 476.956 366.459 476.481 367.442C476.006 368.419 475.226 369.25 474.141 369.934C473.048 370.624 471.868 371.027 470.601 371.143C469.335 371.26 468.073 371.068 466.814 370.567C465.556 370.067 464.392 369.235 463.321 368.072C462.246 366.905 461.585 365.753 461.336 364.616C461.087 363.479 461.199 362.422 461.674 361.445C462.145 360.465 462.928 359.63 464.021 358.94C465.106 358.255 466.282 357.855 467.548 357.739C468.816 357.616 470.079 357.805 471.337 358.306C472.599 358.803 473.767 359.636 474.841 360.803ZM472.204 362.466C471.508 361.71 470.792 361.155 470.053 360.8C469.319 360.443 468.595 360.278 467.879 360.305C467.164 360.333 466.492 360.545 465.863 360.941C465.234 361.338 464.809 361.818 464.588 362.382C464.366 362.946 464.364 363.57 464.581 364.253C464.803 364.934 465.262 365.652 465.957 366.408C466.653 367.164 467.368 367.721 468.102 368.078C468.84 368.433 469.567 368.596 470.283 368.569C470.998 368.542 471.67 368.33 472.299 367.933C472.928 367.536 473.353 367.056 473.574 366.492C473.796 365.928 473.796 365.306 473.574 364.625C473.357 363.942 472.9 363.222 472.204 362.466Z" fill="#71EB11"/>
<rect width="333" height="111" rx="20" transform="matrix(0.845728 -0.533615 0.677261 0.735743 444.866 486.693)" fill="#868686"/>
<rect width="333" height="111" rx="20" transform="matrix(0.845728 -0.533615 0.677261 0.735743 444.866 471.915)" fill="white"/>
<path d="M697.095 381.497L704.939 386.188L705.024 386.134L701.645 378.626L703.808 377.262L708.015 387.295L705.502 388.881L694.928 382.864L697.095 381.497ZM714.752 383.23C714.04 383.679 713.312 383.941 712.567 384.014C711.823 384.082 711.1 383.973 710.398 383.685C709.694 383.394 709.05 382.931 708.465 382.296C707.895 381.677 707.533 381.046 707.379 380.404C707.225 379.762 707.278 379.152 707.539 378.575C707.803 377.995 708.275 377.491 708.953 377.063C709.41 376.775 709.894 376.571 710.405 376.451C710.917 376.326 711.437 376.297 711.964 376.365C712.495 376.431 713.02 376.604 713.538 376.884C714.055 377.161 714.548 377.555 715.02 378.068L715.442 378.526L709.599 382.213L708.647 381.178L712.683 378.631C712.462 378.391 712.206 378.216 711.915 378.106C711.624 377.996 711.324 377.957 711.014 377.987C710.705 378.012 710.411 378.113 710.132 378.289C709.841 378.473 709.637 378.695 709.52 378.955C709.403 379.21 709.372 379.475 709.426 379.751C709.478 380.024 709.612 380.28 709.828 380.52L710.733 381.503C711.008 381.801 711.308 382.019 711.633 382.156C711.962 382.291 712.298 382.344 712.64 382.314C712.983 382.283 713.315 382.167 713.636 381.964C713.849 381.83 714.02 381.68 714.149 381.516C714.278 381.352 714.358 381.178 714.388 380.994C714.418 380.81 714.396 380.621 714.323 380.428L716.191 379.41C716.443 379.838 716.556 380.278 716.532 380.732C716.508 381.18 716.348 381.62 716.051 382.051C715.755 382.477 715.322 382.87 714.752 383.23ZM722.306 378.464C721.598 378.911 720.868 379.165 720.117 379.226C719.366 379.282 718.639 379.163 717.935 378.867C717.234 378.57 716.604 378.117 716.043 377.508C715.476 376.892 715.115 376.265 714.96 375.627C714.806 374.985 714.862 374.374 715.129 373.792C715.394 373.208 715.876 372.695 716.576 372.254C717.179 371.873 717.796 371.635 718.425 371.539C719.054 371.444 719.659 371.485 720.241 371.663C720.823 371.841 721.341 372.154 721.796 372.602L719.985 373.745C719.658 373.477 719.3 373.32 718.913 373.276C718.526 373.227 718.156 373.313 717.805 373.535C717.508 373.722 717.313 373.957 717.22 374.238C717.129 374.515 717.144 374.825 717.266 375.17C717.388 375.514 717.624 375.875 717.972 376.254C718.326 376.638 718.687 376.927 719.055 377.12C719.425 377.312 719.787 377.408 720.139 377.409C720.491 377.41 720.816 377.316 721.113 377.129C721.332 376.99 721.493 376.827 721.595 376.639C721.7 376.448 721.741 376.243 721.718 376.022C721.696 375.797 721.605 375.567 721.446 375.332L723.257 374.19C723.651 374.668 723.879 375.164 723.943 375.677C724.008 376.186 723.905 376.68 723.635 377.161C723.365 377.641 722.922 378.075 722.306 378.464ZM729.779 373.749C729.067 374.198 728.339 374.459 727.595 374.532C726.851 374.601 726.128 374.491 725.426 374.203C724.721 373.912 724.077 373.45 723.493 372.815C722.923 372.195 722.56 371.565 722.406 370.923C722.252 370.281 722.306 369.671 722.567 369.093C722.831 368.514 723.302 368.01 723.981 367.581C724.437 367.293 724.921 367.089 725.432 366.969C725.944 366.844 726.464 366.816 726.992 366.884C727.522 366.949 728.047 367.122 728.566 367.402C729.082 367.679 729.576 368.074 730.047 368.586L730.469 369.045L724.626 372.731L723.674 371.697L727.71 369.15C727.489 368.909 727.233 368.734 726.942 368.625C726.651 368.515 726.351 368.475 726.042 368.505C725.733 368.531 725.439 368.632 725.159 368.808C724.868 368.992 724.664 369.213 724.547 369.473C724.431 369.728 724.399 369.994 724.454 370.269C724.506 370.542 724.639 370.798 724.855 371.038L725.761 372.022C726.035 372.319 726.335 372.537 726.661 372.674C726.989 372.81 727.325 372.862 727.668 372.832C728.01 372.802 728.342 372.685 728.663 372.483C728.876 372.348 729.048 372.199 729.177 372.035C729.306 371.871 729.385 371.697 729.415 371.512C729.445 371.328 729.423 371.14 729.35 370.946L731.219 369.928C731.47 370.356 731.584 370.797 731.559 371.25C731.536 371.699 731.375 372.138 731.079 372.569C730.783 372.995 730.35 373.389 729.779 373.749ZM735.895 362.901L734.225 364.104C734.075 363.992 733.902 363.915 733.707 363.873C733.509 363.829 733.3 363.826 733.08 363.866C732.861 363.901 732.64 363.989 732.418 364.129C732.12 364.317 731.92 364.53 731.817 364.768C731.711 365.004 731.742 365.212 731.907 365.393C732.04 365.536 732.218 365.616 732.441 365.632C732.665 365.648 732.965 365.585 733.342 365.442L734.796 364.871C735.579 364.567 736.259 364.444 736.834 364.502C737.41 364.56 737.898 364.806 738.297 365.239C738.66 365.634 738.845 366.065 738.852 366.531C738.862 366.996 738.712 367.457 738.404 367.916C738.096 368.371 737.642 368.788 737.041 369.167C736.125 369.745 735.242 370.039 734.393 370.05C733.545 370.057 732.81 369.802 732.187 369.286L733.996 368.009C734.276 368.216 734.585 368.314 734.922 368.304C735.257 368.291 735.596 368.177 735.938 367.961C736.274 367.749 736.493 367.522 736.594 367.281C736.695 367.035 736.664 366.821 736.501 366.639C736.359 366.489 736.171 366.411 735.938 366.406C735.702 366.397 735.41 366.462 735.062 366.599L733.672 367.147C732.888 367.456 732.198 367.57 731.6 367.488C731.006 367.405 730.502 367.138 730.088 366.689C729.733 366.302 729.546 365.893 729.529 365.462C729.515 365.029 729.657 364.599 729.956 364.17C730.258 363.74 730.705 363.339 731.297 362.965C732.171 362.414 733.006 362.141 733.804 362.146C734.604 362.149 735.301 362.4 735.895 362.901Z" fill="#286181"/>
<path d="M712.383 366.277C711.037 367.126 709.654 367.681 708.232 367.941C706.812 368.193 705.471 368.155 704.211 367.827C702.951 367.49 701.882 366.86 701.003 365.936L704.931 363.457C705.316 363.834 705.78 364.086 706.325 364.214C706.87 364.332 707.446 364.328 708.052 364.202C708.657 364.076 709.245 363.833 709.816 363.473C710.411 363.098 710.852 362.675 711.14 362.204C711.428 361.733 711.553 361.254 711.513 360.767C711.473 360.28 711.258 359.825 710.868 359.402C710.474 358.973 709.987 358.681 709.408 358.526C708.829 358.363 708.198 358.348 707.515 358.482C706.837 358.612 706.15 358.897 705.453 359.336L703.732 360.422L701.438 357.93L703.159 356.844C703.747 356.473 704.185 356.056 704.472 355.594C704.765 355.128 704.893 354.659 704.857 354.186C704.816 353.708 704.6 353.258 704.211 352.835C703.84 352.432 703.405 352.15 702.903 351.987C702.403 351.815 701.876 351.768 701.321 351.846C700.771 351.919 700.236 352.121 699.713 352.451C699.184 352.784 698.778 353.173 698.493 353.617C698.204 354.056 698.067 354.51 698.081 354.98C698.096 355.45 698.282 355.894 698.639 356.313L694.9 358.672C694.067 357.736 693.62 356.729 693.559 355.652C693.498 354.576 693.784 353.524 694.415 352.498C695.048 351.463 695.995 350.547 697.256 349.751C698.53 348.948 699.829 348.446 701.154 348.246C702.48 348.045 703.722 348.121 704.881 348.472C706.041 348.814 707.007 349.41 707.78 350.26C708.614 351.155 708.983 352.108 708.887 353.118C708.798 354.124 708.311 355.035 707.427 355.848L707.542 355.974C709.039 355.269 710.45 355.027 711.774 355.249C713.1 355.462 714.219 356.069 715.132 357.071C715.98 357.981 716.424 358.985 716.466 360.082C716.513 361.176 716.19 362.264 715.496 363.346C714.802 364.428 713.764 365.405 712.383 366.277Z" fill="#286181"/>
<path d="M512.416 492.628L515.623 490.604L525.63 495.657L525.774 495.566L522.543 486.238L525.75 484.215L535.601 494.916L533.079 496.508L526.667 489.543L526.565 489.607L529.745 498.529L528.027 499.613L518.456 494.682L518.354 494.747L524.789 501.738L522.267 503.33L512.416 492.628ZM537.744 493.564L527.893 482.863L536.182 477.633L537.899 479.498L532.211 483.087L534.559 485.637L539.82 482.317L541.537 484.183L536.276 487.503L538.628 490.058L544.34 486.454L546.057 488.319L537.744 493.564ZM543.175 473.22L545.746 471.598L552.615 479.06C553.25 479.75 553.623 480.461 553.735 481.195C553.851 481.926 553.721 482.627 553.346 483.299C552.97 483.971 552.366 484.57 551.533 485.095C550.793 485.563 550.016 485.874 549.203 486.029C548.39 486.178 547.593 486.13 546.811 485.886C546.026 485.638 545.308 485.157 544.658 484.444L547.247 482.811C547.514 483.088 547.803 483.288 548.113 483.412C548.424 483.53 548.74 483.573 549.059 483.542C549.38 483.505 549.692 483.391 549.996 483.199C550.317 482.997 550.533 482.767 550.644 482.509C550.756 482.246 550.762 481.961 550.664 481.654C550.565 481.348 550.358 481.024 550.044 480.682L543.175 473.22ZM564.127 468.46C565.201 469.627 565.86 470.78 566.105 471.92C566.354 473.057 566.241 474.116 565.766 475.099C565.291 476.076 564.512 476.907 563.426 477.591C562.333 478.281 561.153 478.684 559.887 478.8C558.62 478.917 557.358 478.725 556.1 478.224C554.842 477.724 553.677 476.892 552.606 475.729C551.532 474.562 550.87 473.41 550.621 472.273C550.372 471.136 550.485 470.079 550.959 469.102C551.431 468.122 552.213 467.287 553.306 466.597C554.391 465.912 555.567 465.512 556.834 465.396C558.101 465.273 559.364 465.462 560.622 465.963C561.884 466.46 563.052 467.293 564.127 468.46ZM561.49 470.123C560.794 469.368 560.077 468.812 559.339 468.457C558.605 468.1 557.88 467.935 557.164 467.962C556.449 467.99 555.777 468.202 555.148 468.598C554.52 468.995 554.094 469.475 553.873 470.039C553.651 470.603 553.649 471.227 553.867 471.91C554.088 472.591 554.547 473.309 555.243 474.065C555.939 474.821 556.654 475.378 557.388 475.735C558.126 476.09 558.853 476.253 559.568 476.226C560.283 476.199 560.955 475.987 561.584 475.59C562.213 475.193 562.638 474.713 562.86 474.149C563.081 473.585 563.081 472.963 562.86 472.282C562.642 471.599 562.185 470.879 561.49 470.123ZM570.979 472.595L561.128 461.893L565.981 458.831C566.91 458.245 567.836 457.889 568.759 457.764C569.682 457.633 570.559 457.721 571.387 458.03C572.217 458.333 572.957 458.838 573.608 459.545C574.262 460.256 574.648 460.978 574.767 461.713C574.883 462.444 574.732 463.156 574.313 463.85C573.899 464.541 573.219 465.184 572.274 465.781L569.024 467.831L567.35 466.013L570.179 464.228C570.676 463.914 571.034 463.595 571.253 463.269C571.473 462.944 571.553 462.612 571.495 462.274C571.442 461.933 571.253 461.587 570.929 461.235C570.602 460.88 570.244 460.632 569.855 460.492C569.471 460.349 569.054 460.32 568.606 460.404C568.159 460.483 567.686 460.68 567.185 460.995L565.431 462.102L573.58 470.954L570.979 472.595ZM573.139 463.533L580.679 466.474L577.808 468.286L570.334 465.303L573.139 463.533Z" fill="#71EB11"/>
<path d="M509.719 489.148L496.913 475.236L503.316 471.196C504.493 470.454 505.613 469.986 506.679 469.794C507.744 469.601 508.723 469.65 509.614 469.939C510.502 470.224 511.267 470.715 511.909 471.412C512.409 471.956 512.724 472.512 512.853 473.082C512.979 473.647 512.944 474.199 512.748 474.738C512.554 475.269 512.228 475.764 511.771 476.224L511.896 476.36C512.526 475.998 513.234 475.788 514.019 475.729C514.809 475.667 515.6 475.78 516.392 476.068C517.18 476.352 517.888 476.835 518.518 477.519C519.197 478.257 519.593 479.049 519.705 479.895C519.818 480.733 519.62 481.577 519.111 482.428C518.602 483.279 517.749 484.082 516.552 484.837L509.719 489.148ZM510.887 484.61L513.643 482.871C514.586 482.277 515.129 481.687 515.273 481.102C515.414 480.512 515.242 479.955 514.758 479.429C514.404 479.044 513.985 478.772 513.5 478.612C513.016 478.453 512.499 478.414 511.949 478.496C511.404 478.575 510.861 478.785 510.32 479.126L507.485 480.915L510.887 484.61ZM505.653 478.925L508.16 477.343C508.623 477.051 508.97 476.721 509.2 476.354C509.431 475.979 509.529 475.595 509.496 475.201C509.467 474.803 509.284 474.421 508.947 474.054C508.484 473.552 507.905 473.276 507.21 473.228C506.521 473.176 505.801 473.387 505.052 473.86L502.483 475.48L505.653 478.925ZM524.257 479.976L511.451 466.064L522.226 459.265L524.459 461.69L517.064 466.355L520.116 469.67L526.956 465.355L529.188 467.78L522.348 472.096L525.406 475.417L532.832 470.732L535.064 473.157L524.257 479.976ZM526.538 460.378L524.305 457.953L537.439 449.666L539.672 452.091L534.776 455.18L545.35 466.667L542.008 468.776L531.434 457.289L526.538 460.378ZM541.226 451.111L538.993 448.685L552.127 440.399L554.36 442.824L549.464 445.913L560.038 457.4L556.696 459.509L546.122 448.021L541.226 451.111ZM567.097 452.946L554.29 439.034L565.066 432.235L567.299 434.66L559.904 439.326L562.955 442.641L569.796 438.325L572.028 440.75L565.188 445.066L568.246 448.388L575.671 443.702L577.904 446.127L567.097 452.946ZM580.561 444.451L567.754 430.539L574.064 426.558C575.271 425.796 576.475 425.333 577.675 425.171C578.876 425 580.015 425.115 581.092 425.517C582.17 425.91 583.132 426.567 583.978 427.486C584.829 428.41 585.331 429.349 585.486 430.304C585.637 431.254 585.44 432.18 584.896 433.082C584.357 433.98 583.473 434.817 582.244 435.592L578.02 438.258L575.844 435.894L579.522 433.573C580.167 433.166 580.632 432.751 580.918 432.327C581.203 431.904 581.308 431.473 581.232 431.033C581.162 430.591 580.917 430.141 580.496 429.683C580.071 429.222 579.605 428.899 579.1 428.717C578.6 428.531 578.059 428.493 577.477 428.603C576.896 428.705 576.28 428.961 575.629 429.371L573.349 430.81L583.942 442.318L580.561 444.451ZM583.369 432.671L593.172 436.494L589.439 438.849L579.722 434.972L583.369 432.671Z" fill="#286181"/>
<rect width="333" height="111" rx="20" transform="matrix(0.845728 -0.533615 0.677261 0.735743 543 593.693)" fill="#868686"/>
<rect width="333" height="111" rx="20" transform="matrix(0.845728 -0.533615 0.677261 0.735743 544.421 580.071)" fill="white"/>
<rect width="92" height="18" rx="9" transform="matrix(0.845728 -0.533615 0.677261 0.735743 600.435 590.089)" fill="#286181"/>
<rect width="27" height="24" rx="12" transform="matrix(0.845728 -0.533615 0.677261 0.735743 785.982 464.875)" fill="#286181"/>
<rect width="50" height="8" rx="4" transform="matrix(0.845728 -0.533615 0.677261 0.735743 794.797 491.879)" fill="#286181"/>
<rect width="71" height="13" rx="6.5" transform="matrix(0.845728 -0.533615 0.677261 0.735743 614.657 605.539)" fill="#71EB11"/>
<defs>
<clipPath id="clip0_636_2646">
<rect width="402" height="46" rx="23" transform="matrix(0.845728 -0.533615 0.677261 0.735743 20.6445 232.094)" fill="white"/>
</clipPath>
<clipPath id="clip1_636_2646">
<rect width="54" height="21" rx="10.5" transform="matrix(0.845728 -0.533615 0.677261 0.735743 46.5317 229.717)" fill="white"/>
</clipPath>
<clipPath id="clip2_636_2646">
<rect width="375" height="32" rx="16" transform="matrix(0.845728 -0.533615 0.677261 0.735743 621.534 865.989)" fill="white"/>
</clipPath>
</defs>
</svg>
